<?xml version="1.0" encoding="utf-8" ?>
<svg xmlns="http://www.w3.org/2000/svg" xmlns:xlink="http://www.w3.org/1999/xlink" width="30" height="12">
	<path transform="translate(0.0758057 0.0756836)" d="M28.18289 1.0519819C28.411396 0.78738791 28.386007 0.39049691 28.125763 0.16370204C27.859171 -0.063092835 27.459284 -0.037893407 27.230776 0.22040075C27.192692 0.26449975 24.050722 3.7546208 18.217445 4.9704933C18.198404 4.9704933 18.179361 4.9767933 18.16032 4.9830928C16.947964 5.2350874 15.615005 5.3799839 14.174142 5.3799839C12.733279 5.3799839 11.400322 5.2287874 10.181618 4.9767933C10.143534 4.9641933 10.105449 4.9578934 10.067365 4.9515939C4.2848682 3.7231214 1.149245 0.2581999 1.1111605 0.2141009C0.87630618 -0.044193264 0.47641897 -0.075692549 0.21617493 0.15740217C-0.044069126 0.38419706 -0.075806201 0.78108805 0.15904818 1.0456821C0.23521717 1.1338801 0.99055964 1.9717611 2.3996859 2.9734385L0.15270077 5.5941792C-0.075806201 5.8587732 -0.044069126 6.2556643 0.22252233 6.4824591C0.48911381 6.7092538 0.88900101 6.6777549 1.1175079 6.4131608L3.4597044 3.6790226C4.9069152 4.5673022 6.8174872 5.4807816 9.1787262 6.0477691L8.1567917 9.1724987C8.0488863 9.5063906 8.2329607 9.8591824 8.5630264 9.96628C8.6265011 9.9851799 8.6963224 9.9977798 8.7597971 9.9977798C9.0263882 9.9977798 9.2739372 9.8276834 9.3628016 9.5630894L10.422819 6.3123631C11.57805 6.5202584 12.82849 6.6399555 14.174142 6.6399555C15.519794 6.6399555 16.751194 6.5202584 17.900076 6.3186626L18.991831 9.5693893C19.099737 9.8969822 19.46154 10.079678 19.791605 9.96628C20.121672 9.8591824 20.305746 9.5000906 20.191492 9.1724987L19.144169 6.0603685C21.518103 5.4870815 23.435022 4.5736022 24.88858 3.6853223L27.230776 6.4194603C27.459284 6.6840544 27.859171 6.7155538 28.125763 6.495059C28.392353 6.2682638 28.424091 5.8713727 28.201931 5.6067791L25.954947 2.9797382C27.364073 1.978061 28.113068 1.14018 28.195583 1.0519819L28.18289 1.0519819Z"/>
</svg>
