<?xml version="1.0" encoding="utf-8" ?>
<svg xmlns="http://www.w3.org/2000/svg" xmlns:xlink="http://www.w3.org/1999/xlink" width="17" height="20">
	<path fill="#2B3033" d="M8.5 2L2.125 2L2.125 18L14.875 18L14.875 8.5L10.625 8.5C9.4513998 8.5 8.5 7.6045699 8.5 6.5L8.5 2ZM14.526 6.5L10.625 2.8284299L10.625 6.5L14.526 6.5ZM0 1L0 19C0 19.552299 0.47569999 20 1.0625 20L15.9375 20C16.5243 20 17 19.552299 17 19L17 6.4142098C17 6.1490002 16.8881 5.89464 16.688801 5.7071099L10.9362 0.29289001C10.7369 0.10536 10.4667 0 10.1849 0L1.0625 0C0.47569999 0 0 0.44771999 0 1ZM4.78125 12L4.78125 10L12.2188 10L12.2188 12L4.78125 12ZM4.78125 16L10.0938 16L10.0938 14L4.78125 14L4.78125 16Z" fill-rule="evenodd"/>
</svg>
